<svg xmlns="http://www.w3.org/2000/svg" xmlns:xlink="http://www.w3.org/1999/xlink" aria-hidden="true" role="img" class="iconify iconify--logos" width="31.88" height="32" preserveAspectRatio="xMidYMid meet" viewBox="0 0 256 257"><defs><linearGradient id="IconifyId1813088fe11bc01480" x1="-0.828%" x2="57.636%" y1="7.652%" y2="78.411%"><stop offset="0%" stop-color="#41D1FF"></stop><stop offset="100%" stop-color="#BD34FE"></stop></linearGradient><linearGradient id="IconifyId1813088fe11bc01481" x1="43.376%" x2="50.325%" y1="2.242%" y2="89.03%"><stop offset="0%" stop-color="#FFEA83"></stop><stop offset="8.333%" stop-color="#FFDD35"></stop><stop offset="100%" stop-color="#FFA800"></stop></linearGradient></defs><path fill="url(#IconifyId1813088fe11bc01480)" d="M255.153 37.938L134.897 252.976c-2.483 4.44-8.862 4.466-11.382.048L.875 37.958c-2.746-4.814 1.371-10.646 6.827-9.599l120.385 23.136a10.116 10.116 0 0 0 3.834 0l116.35-22.312c5.474-1.05 9.595 4.832 6.882 9.755z"></path><path fill="url(#IconifyId1813088fe11bc01481)" d="M185.432.063L96.84 31.25a2.122 2.122 0 0 0-1.325 2.53l18.302 61.977a2.122 2.122 0 0 1-2.434 2.629L22.128 84.991a2.122 2.122 0 0 0-2.27 3.013l108.834 162.781a2.122 2.122 0 0 0 3.501.014l99.225-149.329a2.122 2.122 0 0 0-2.223-3.203l-71.22 13.16a2.122 2.122 0 0 1-2.436-2.505l15.651-68.76a2.122 2.122 0 0 0-2.665-2.498L130.88 47.907a2.122 2.122 0 0 1-2.104-2.533L144.252 2.14a2.122 2.122 0 0 0-2.49-2.503l-55.51 11.141a2.122 2.122 0 0 1-2.414-1.642L81.299.513A2.122 2.122 0 0 0 78.56.014L28.533 5.945a2.122 2.122 0 0 0-1.85 2.639l11.451 44.251a2.122 2.122 0 0 1-2.26 2.633L2.122 53.642a2.122 2.122 0 0 0-1.86 3.491l128 128a2.122 2.122 0 0 0 3.483-2.506l-18.302-61.977a2.122 2.122 0 0 1 2.434-2.629l89.255 13.396a2.122 2.122 0 0 0 2.27-3.013L126.31 16.633a2.122 2.122 0 0 0-3.501-.014L23.584 165.948a2.122 2.122 0 0 0 2.223 3.203l71.22-13.16a2.122 2.122 0 0 1 2.436 2.505l-15.651 68.76a2.122 2.122 0 0 0 2.665 2.498l37.707-10.222a2.122 2.122 0 0 1 2.104 2.533l-15.476 43.234a2.122 2.122 0 0 0 2.49 2.503l55.51-11.141a2.122 2.122 0 0 1 2.414 1.642l2.545 8.785a2.122 2.122 0 0 0 2.739.499l50.027-5.931a2.122 2.122 0 0 0 1.85-2.639l-11.451-44.251a2.122 2.122 0 0 1 2.26-2.633l33.751 1.827a2.122 2.122 0 0 0 1.86-3.491L128 128.5a2.122 2.122 0 0 0-3.483 2.506z"></path></svg>
